<?xml version="1.0" standalone="no"?>
<!DOCTYPE svg PUBLIC "-//W3C//DTD SVG 20010904//EN"
 "http://www.w3.org/TR/2001/REC-SVG-20010904/DTD/svg10.dtd">
<svg version="1.0" xmlns="http://www.w3.org/2000/svg"
 width="1640.000000pt" height="1640.000000pt" viewBox="0 0 1640.000000 1640.000000"
 preserveAspectRatio="xMidYMid meet">
<metadata>
Created by potrace 1.11, written by Peter Selinger 2001-2013
</metadata>
<g transform="translate(0.000000,1640.000000) scale(0.100000,-0.100000)"
fill="#000000" stroke="none">
<path d="M2 8200 l3 -6655 1498 -1 1497 -1 1 21 c0 12 1 785 1 1718 1 934 2
1698 4 1698 1 0 38 -42 81 -92 42 -51 80 -95 83 -98 3 -3 50 -59 105 -125 54
-66 109 -131 122 -145 12 -14 74 -88 138 -165 64 -77 126 -151 138 -165 12
-14 45 -52 72 -85 28 -33 52 -62 55 -65 3 -3 28 -32 55 -65 28 -33 55 -65 60
-71 6 -6 28 -33 50 -60 22 -27 54 -64 71 -84 17 -19 66 -78 110 -130 44 -52
131 -156 194 -230 62 -74 179 -214 259 -310 80 -96 151 -179 157 -185 5 -5 44
-50 85 -100 40 -49 76 -92 79 -95 3 -3 39 -45 80 -95 41 -49 77 -92 80 -95 3
-3 50 -59 105 -124 121 -145 311 -371 544 -648 l174 -207 5247 1 5247 2 -1
1495 -1 1496 -3280 2 c-1804 1 -3282 2 -3285 2 -3 1 -5 2322 -5 5159 l0 5157
-1960 0 -1960 0 -25 -26 c-14 -14 -32 -35 -40 -45 -19 -24 -289 -345 -473
-564 -168 -198 -169 -200 -232 -275 -27 -33 -52 -62 -55 -65 -3 -3 -52 -61
-110 -130 -141 -168 -632 -752 -645 -766 -5 -7 -26 -31 -44 -54 -19 -23 -40
-48 -46 -54 -5 -6 -66 -78 -135 -161 -69 -82 -137 -163 -151 -180 -26 -29
-495 -586 -568 -674 -20 -24 -41 -49 -46 -55 -6 -6 -79 -93 -163 -193 -84
-100 -156 -184 -161 -187 -4 -3 -7 760 -7 1695 1 935 -2 1707 -5 1717 -6 16
-99 17 -1503 17 l-1496 0 2 -6655z m6821 5 c0 -1686 -3 -3068 -7 -3072 -3 -3
-8 -4 -9 -2 -9 10 -395 470 -511 609 -72 85 -193 229 -269 320 -77 91 -149
176 -161 190 -11 14 -129 153 -261 310 -131 157 -242 287 -245 290 -3 3 -15
17 -26 32 -12 15 -42 51 -67 80 -37 44 -230 273 -431 512 -37 45 -147 175
-200 236 -38 45 -270 322 -329 394 -32 39 -63 73 -68 74 -17 7 -9 29 25 68 26
31 374 443 454 539 9 11 78 92 152 180 74 88 203 241 285 340 83 99 155 185
161 190 6 6 31 35 56 65 39 48 243 291 302 360 11 14 44 52 71 85 28 33 52 62
55 65 3 3 73 86 155 185 83 99 152 182 156 185 3 3 29 34 58 70 30 36 57 67
60 70 4 3 38 43 76 90 38 47 72 87 75 90 3 3 50 59 105 125 55 66 108 128 117
139 9 10 61 71 115 136 54 65 100 116 102 114 2 -2 4 -1383 4 -3069z"/>
</g>
</svg>
