<svg width="36" height="36" viewBox="0 0 36 36" fill="none" xmlns="http://www.w3.org/2000/svg">
<g clip-path="url(#clip0_13_95)">
<path d="M18 0.445522C8.055 0.445522 0 8.50502 0 18.4455C0 26.4004 5.157 33.1459 12.3075 35.523C13.2075 35.6929 13.5371 35.136 13.5371 34.6579C13.5371 34.2304 13.5225 33.0975 13.5146 31.5979C8.50725 32.6835 7.452 29.1825 7.452 29.1825C6.633 27.1046 5.4495 26.55 5.4495 26.55C3.81937 25.434 5.5755 25.4565 5.5755 25.4565C7.38337 25.5825 8.33288 27.3105 8.33288 27.3105C9.93825 30.0634 12.546 29.268 13.5754 28.8079C13.7374 27.6435 14.2009 26.8504 14.715 26.4004C10.7179 25.9504 6.516 24.4024 6.516 17.505C6.516 15.5396 7.2135 13.9354 8.36888 12.6754C8.16638 12.2209 7.55887 10.3905 8.52637 7.91102C8.52637 7.91102 10.0339 7.4284 13.4764 9.75602C14.9164 9.35552 16.4464 9.15752 17.9764 9.14852C19.5064 9.15752 21.0364 9.35552 22.4764 9.75602C25.8964 7.4284 27.4039 7.91102 27.4039 7.91102C28.3714 10.3905 27.7639 12.2209 27.5839 12.6754C28.7314 13.9354 29.4289 15.5407 29.4289 17.505C29.4289 24.4204 25.2214 25.9425 21.2164 26.3846C21.8464 26.9246 22.4314 28.0283 22.4314 29.7146C22.4314 32.1233 22.4089 34.0583 22.4089 34.6433C22.4089 35.1158 22.7239 35.6783 23.6464 35.4983C30.8475 33.1369 36 26.3869 36 18.4444C36 8.5039 27.9405 0.445522 18 0.445522Z" fill="#2F80ED"/>
</g>
<defs>
<clipPath id="clip0_13_95">
<rect width="36" height="36" fill="white"/>
</clipPath>
</defs>
</svg>
