<svg width="32" height="32" viewBox="0 0 32 32" fill="none" xmlns="http://www.w3.org/2000/svg">
<path d="M16 0.39602C7.16 0.39602 0 7.56002 0 16.396C0 23.467 4.584 29.463 10.94 31.576C11.74 31.727 12.033 31.232 12.033 30.807C12.033 30.427 12.02 29.42 12.013 28.087C7.562 29.052 6.624 25.94 6.624 25.94C5.896 24.093 4.844 23.6 4.844 23.6C3.395 22.608 4.956 22.628 4.956 22.628C6.563 22.74 7.407 24.276 7.407 24.276C8.834 26.723 11.152 26.016 12.067 25.607C12.211 24.572 12.623 23.867 13.08 23.467C9.527 23.067 5.792 21.691 5.792 15.56C5.792 13.813 6.412 12.387 7.439 11.267C7.259 10.863 6.719 9.23602 7.579 7.03202C7.579 7.03202 8.919 6.60302 11.979 8.67202C13.259 8.31602 14.619 8.14002 15.979 8.13202C17.339 8.14002 18.699 8.31602 19.979 8.67202C23.019 6.60302 24.359 7.03202 24.359 7.03202C25.219 9.23602 24.679 10.863 24.519 11.267C25.539 12.387 26.159 13.814 26.159 15.56C26.159 21.707 22.419 23.06 18.859 23.453C19.419 23.933 19.939 24.914 19.939 26.413C19.939 28.554 19.919 30.274 19.919 30.794C19.919 31.214 20.199 31.714 21.019 31.554C27.42 29.455 32 23.455 32 16.395C32 7.55902 24.836 0.39502 16 0.39502V0.39602Z" fill="#2B2C30"/>
</svg>
