<svg width="36" height="36" viewBox="0 0 36 36" fill="none" xmlns="http://www.w3.org/2000/svg">
<g clip-path="url(#clip0_13_83)">
<mask id="mask0_13_83" style="mask-type:luminance" maskUnits="userSpaceOnUse" x="0" y="0" width="36" height="36">
<path d="M36 0H0V36H36V0Z" fill="white"/>
</mask>
<g mask="url(#mask0_13_83)">
<path d="M18 0C13.1096 0 12.4999 0.0225 10.5795 0.108C8.6625 0.198 7.3575 0.4995 6.21 0.945C5.0265 1.404 4.02187 2.0205 3.02062 3.02062C2.01937 4.02075 1.40175 5.02425 0.945 6.21C0.4995 7.3575 0.196875 8.6625 0.108 10.5795C0.018 12.4999 0 13.1096 0 18C0 22.8904 0.0225 23.5001 0.108 25.4205C0.198 27.3364 0.4995 28.6425 0.945 29.79C1.404 30.9724 2.0205 31.9781 3.02062 32.9794C4.02075 33.9784 5.02425 34.5983 6.21 35.055C7.35862 35.4994 8.66363 35.8031 10.5795 35.892C12.4999 35.982 13.1096 36 18 36C22.8904 36 23.5001 35.9775 25.4205 35.892C27.3364 35.802 28.6425 35.4994 29.79 35.055C30.9724 34.596 31.9781 33.9784 32.9794 32.9794C33.9784 31.9792 34.5983 30.9769 35.055 29.79C35.4994 28.6425 35.8031 27.3364 35.892 25.4205C35.982 23.5001 36 22.8904 36 18C36 13.1096 35.9775 12.4999 35.892 10.5795C35.802 8.66363 35.4994 7.35638 35.055 6.21C34.596 5.0265 33.9784 4.02187 32.9794 3.02062C31.9792 2.0205 30.9769 1.40175 29.79 0.945C28.6425 0.4995 27.3364 0.196875 25.4205 0.108C23.5001 0.018 22.8904 0 18 0ZM18 3.24C22.8049 3.24 23.3775 3.26362 25.2754 3.34687C27.0304 3.429 27.9833 3.72038 28.6155 3.969C29.4581 4.29413 30.0555 4.6845 30.6889 5.31337C31.3177 5.94338 31.707 6.54188 32.0333 7.3845C32.2796 8.01787 32.5732 8.96963 32.6531 10.7246C32.7386 12.6236 32.7578 13.194 32.7578 18C32.7578 22.806 32.7352 23.3775 32.6464 25.2754C32.5552 27.0304 32.2627 27.9833 32.0153 28.6155C31.6789 29.4581 31.2964 30.0555 30.6664 30.6889C30.0375 31.3177 29.43 31.707 28.5964 32.0333C27.9664 32.2796 26.9989 32.5732 25.2439 32.6531C23.3325 32.7386 22.77 32.7578 17.955 32.7578C13.1389 32.7578 12.5764 32.7352 10.6661 32.6464C8.91 32.5552 7.9425 32.2627 7.3125 32.0153C6.45862 31.6789 5.8725 31.2964 5.24362 30.6664C4.6125 30.0375 4.20862 29.43 3.89363 28.5964C3.64613 27.9664 3.35475 26.9989 3.26363 25.2439C3.19613 23.3539 3.1725 22.77 3.1725 17.9775C3.1725 13.1839 3.19613 12.5989 3.26363 10.6864C3.35475 8.93137 3.64613 7.965 3.89363 7.335C4.20862 6.48 4.6125 5.895 5.24362 5.26388C5.8725 4.635 6.45862 4.23 7.3125 3.91725C7.9425 3.66863 8.88863 3.37613 10.6436 3.28612C12.5561 3.21863 13.1186 3.19613 17.9325 3.19613L18 3.24ZM18 8.757C12.8925 8.757 8.757 12.897 8.757 18C8.757 23.1075 12.897 27.243 18 27.243C23.1075 27.243 27.243 23.103 27.243 18C27.243 12.8925 23.103 8.757 18 8.757ZM18 23.9996C14.6846 23.9996 12.0004 21.3143 12.0004 18C12.0004 14.6858 14.6858 12.0004 18 12.0004C21.3143 12.0004 23.9996 14.6858 23.9996 18C23.9996 21.3143 21.3143 23.9996 18 23.9996ZM29.7686 8.3925C29.7686 9.585 28.8 10.5525 27.6086 10.5525C26.4161 10.5525 25.4486 9.58387 25.4486 8.3925C25.4486 7.20113 26.4172 6.23362 27.6086 6.23362C28.7978 6.2325 29.7686 7.20113 29.7686 8.3925Z" fill="#2F80ED"/>
</g>
</g>
<defs>
<clipPath id="clip0_13_83">
<rect width="36" height="36" fill="white"/>
</clipPath>
</defs>
</svg>
