<svg width="36" height="36" viewBox="0 0 36 36" fill="none" xmlns="http://www.w3.org/2000/svg">
<g clip-path="url(#clip0_13_89)">
<mask id="mask0_13_89" style="mask-type:luminance" maskUnits="userSpaceOnUse" x="0" y="0" width="36" height="36">
<path d="M36 0H0V36H36V0Z" fill="white"/>
</mask>
<g mask="url(#mask0_13_89)">
<path d="M30.6709 30.6776H25.3395V22.3245C25.3395 20.3321 25.299 17.7694 22.5619 17.7694C19.782 17.7694 19.3579 19.9373 19.3579 22.1783V30.6788H14.0265V13.5011H19.1475V15.8422H19.2161C19.9316 14.4922 21.672 13.0669 24.2708 13.0669C29.6719 13.0669 30.6709 16.6219 30.6709 21.249V30.6776ZM8.0055 11.1499C6.28988 11.1499 4.91062 9.7605 4.91062 8.05275C4.91062 6.34613 6.291 4.95788 8.0055 4.95788C9.7155 4.95788 11.1015 6.345 11.1015 8.05275C11.1015 9.76163 9.71438 11.1499 8.0055 11.1499ZM10.6785 30.6776H5.3325V13.5H10.6785V30.6776ZM33.3371 0H2.65613C1.188 0 0 1.161 0 2.59313V33.4058C0 34.8401 1.188 35.9989 2.65613 35.9989H33.3326C34.7996 35.9989 36 34.839 36 33.4058V2.59313C36 1.161 34.7996 0 33.3326 0H33.3371Z" fill="#2F80ED"/>
</g>
</g>
<defs>
<clipPath id="clip0_13_89">
<rect width="36" height="36" fill="white"/>
</clipPath>
</defs>
</svg>
