<svg xmlns="http://www.w3.org/2000/svg" width="32" height="32" fill="none" viewBox="0 0 32 32"><g clip-path="url(#clip0)"><path fill="#2B2C30" d="M27.263 27.269H22.524V19.844C22.524 18.073 22.488 15.795 20.055 15.795C17.584 15.795 17.207 17.722 17.207 19.714V27.27H12.468V12.001H17.02V14.082H17.081C17.717 12.882 19.264 11.615 21.574 11.615C26.375 11.615 27.263 14.775 27.263 18.888V27.269ZM7.116 9.911C5.591 9.911 4.365 8.676 4.365 7.158C4.365 5.641 5.592 4.407 7.116 4.407C8.636 4.407 9.868 5.64 9.868 7.158C9.868 8.677 8.635 9.911 7.116 9.911V9.911ZM9.492 27.269H4.74V12H9.492V27.269ZM29.633 0H2.361C1.056 0 0 1.032 0 2.305V29.694C0 30.969 1.056 31.999 2.361 31.999H29.629C30.933 31.999 32 30.968 32 29.694V2.305C32 1.032 30.933 0 29.629 0L29.633 0Z"/></g><defs><clipPath id="clip0"><rect width="32" height="32" fill="#fff"/></clipPath></defs></svg>