<svg width="36" height="36" viewBox="0 0 36 36" fill="none" xmlns="http://www.w3.org/2000/svg">
<g clip-path="url(#clip0_13_97)">
<mask id="mask0_13_97" style="mask-type:luminance" maskUnits="userSpaceOnUse" x="0" y="0" width="36" height="36">
<path d="M36 0H0V36H36V0Z" fill="white"/>
</mask>
<g mask="url(#mask0_13_97)">
<path d="M35.9314 6.85341C34.6039 7.43729 33.1864 7.83441 31.6935 8.01554C33.2145 7.09866 34.3845 5.65416 34.938 3.93066C33.5115 4.76316 31.9309 5.36954 30.2479 5.70704C28.9035 4.26816 26.9888 3.36816 24.8614 3.36816C20.7855 3.36816 17.4814 6.67229 17.4814 10.7437C17.4814 11.3287 17.5489 11.8912 17.6715 12.43C11.5369 12.1409 6.09863 9.19454 2.46038 4.74066C1.82025 5.82404 1.46137 7.08179 1.46137 8.45316C1.46137 11.0182 2.76638 13.2727 4.743 14.5968C3.5325 14.5574 2.394 14.2244 1.40062 13.6732V13.7643C1.40062 17.3418 3.93975 20.3253 7.31925 21.0048C6.69938 21.1713 6.04575 21.2613 5.37525 21.2613C4.90387 21.2613 4.45275 21.2163 4.00163 21.1319C4.94775 24.0614 7.66913 26.1978 10.908 26.2574C8.388 28.2363 5.19412 29.4153 1.755 29.4153C1.17 29.4153 0.586125 29.3804 0 29.3152C3.28387 31.4065 7.15163 32.6283 11.3355 32.6283C24.9165 32.6283 32.3336 21.3839 32.3336 11.6493C32.3336 11.3354 32.3336 11.0193 32.3111 10.7043C33.7523 9.67041 35.0111 8.36429 36.0011 6.88266L35.9314 6.85341Z" fill="#2F80ED"/>
</g>
</g>
<defs>
<clipPath id="clip0_13_97">
<rect width="36" height="36" fill="white"/>
</clipPath>
</defs>
</svg>
