<svg xmlns="http://www.w3.org/2000/svg" width="32" height="32" fill="none" viewBox="0 0 32 32"><g clip-path="url(#clip0)"><path fill="#2B2C30" d="M31.939 6.0919C30.759 6.6109 29.499 6.9639 28.172 7.1249C29.524 6.3099 30.564 5.0259 31.056 3.4939C29.788 4.2339 28.383 4.7729 26.887 5.0729C25.692 3.7939 23.99 2.9939 22.099 2.9939C18.476 2.9939 15.539 5.9309 15.539 9.5499C15.539 10.0699 15.599 10.5699 15.708 11.0489C10.255 10.7919 5.421 8.1729 2.187 4.2139C1.618 5.1769 1.299 6.2949 1.299 7.5139C1.299 9.7939 2.459 11.7979 4.216 12.9749C3.14 12.9399 2.128 12.6439 1.245 12.1539V12.2349C1.245 15.4149 3.502 18.0669 6.506 18.6709C5.955 18.8189 5.374 18.8989 4.778 18.8989C4.359 18.8989 3.958 18.8589 3.557 18.7839C4.398 21.3879 6.817 23.2869 9.696 23.3399C7.456 25.0989 4.617 26.1469 1.56 26.1469C1.04 26.1469 0.521 26.1159 0 26.0579C2.919 27.9169 6.357 29.0029 10.076 29.0029C22.148 29.0029 28.741 19.0079 28.741 10.3549C28.741 10.0759 28.741 9.7949 28.721 9.5149C30.002 8.5959 31.121 7.4349 32.001 6.1179L31.939 6.0919Z"/></g><defs><clipPath id="clip0"><rect width="32" height="32" fill="#fff"/></clipPath></defs></svg>