<svg width="1200" height="600" viewBox="0 0 1200 600" fill="none" xmlns="http://www.w3.org/2000/svg">
<g clip-path="url(#clip0)">
<path fill-rule="evenodd" clip-rule="evenodd" d="M1135.07 616.176C1128.45 613.53 1121.13 611.407 1115.76 611.639C1110.25 611.876 1102.99 614.754 1096.48 618.121C1093.37 619.735 1090.65 621.337 1088.72 622.536C1087.76 623.133 1087 623.626 1086.49 623.963C1086.23 624.132 1086.04 624.262 1085.92 624.346C1085.85 624.388 1085.81 624.419 1085.78 624.438L1085.75 624.457C1085.75 624.457 1085.75 624.456 1081.85 618.814C1077.95 613.171 1077.95 613.171 1077.95 613.17L1077.96 613.168L1077.96 613.164L1077.98 613.152L1078.04 613.113C1078.08 613.081 1078.15 613.036 1078.23 612.98C1078.4 612.867 1078.64 612.708 1078.94 612.509C1079.54 612.11 1080.41 611.55 1081.49 610.88C1083.64 609.544 1086.67 607.754 1090.18 605.937C1096.92 602.443 1106.47 598.307 1115.17 597.932C1123.65 597.566 1133.29 600.689 1140.16 603.436C1143.74 604.865 1146.84 606.308 1149.05 607.394C1150.16 607.939 1151.05 608.397 1151.68 608.725C1151.99 608.888 1152.23 609.019 1152.41 609.112C1152.49 609.158 1152.56 609.195 1152.61 609.222L1152.67 609.254L1152.7 609.269C1152.7 609.27 1152.7 609.27 1149.38 615.275C1146.06 621.279 1146.06 621.28 1146.06 621.28L1146.06 621.279L1146.03 621.264C1146.01 621.249 1145.96 621.223 1145.9 621.189C1145.77 621.119 1145.57 621.013 1145.3 620.874C1144.78 620.598 1143.99 620.195 1143 619.709C1141.02 618.736 1138.24 617.445 1135.07 616.176Z" fill="#69A2F0"/>
<path fill-rule="evenodd" clip-rule="evenodd" d="M737.383 564.909C737.382 564.909 737.381 564.909 737.551 558.751C737.722 552.594 737.721 552.594 737.719 552.594L737.714 552.594L737.711 552.594L737.752 552.594C737.797 552.595 737.874 552.596 737.981 552.596C738.194 552.596 738.521 552.593 738.933 552.579C739.767 552.551 740.904 552.48 742.129 552.315C744.806 551.953 746.57 551.306 747.267 550.788C747.265 550.745 747.262 550.693 747.257 550.632C747.176 549.675 746.757 548.406 745.918 546.101C745.886 546.013 745.853 545.922 745.819 545.829C745.134 543.954 744.118 541.169 743.904 538.385C743.644 534.996 744.527 531.123 748.045 528.136C749.933 526.533 752.373 525.418 753.873 524.797C754.709 524.451 755.456 524.178 755.996 523.99C756.268 523.895 756.493 523.82 756.656 523.767C756.737 523.741 756.804 523.719 756.854 523.704L756.916 523.684L756.938 523.677L756.951 523.673C756.952 523.673 756.952 523.673 758.758 529.562C760.565 535.451 760.565 535.451 760.566 535.451L760.561 535.453C760.544 535.458 760.511 535.468 760.466 535.483C760.374 535.513 760.23 535.561 760.045 535.625C759.672 535.755 759.155 535.945 758.587 536.18C757.455 536.649 756.611 537.102 756.185 537.401C756.186 537.414 756.187 537.428 756.188 537.442C756.258 538.348 756.658 539.586 757.495 541.889C757.531 541.985 757.567 542.085 757.604 542.187C758.288 544.058 759.297 546.822 759.533 549.584C759.818 552.929 759.026 556.812 755.597 559.877C752.009 563.083 746.853 564.109 743.777 564.524C742.04 564.758 740.476 564.854 739.349 564.892C738.781 564.911 738.313 564.916 737.977 564.916C737.808 564.916 737.672 564.914 737.571 564.913C737.521 564.912 737.48 564.911 737.448 564.911L737.407 564.91L737.392 564.909L737.383 564.909Z" fill="#69A2F0"/>
<circle cx="575.072" cy="587.272" r="11.6" transform="rotate(81 575.072 587.272)" fill="#EB5757"/>
<path fill-rule="evenodd" clip-rule="evenodd" d="M471.815 502.398C471.843 498.921 472.518 494.91 474.893 491.456C479.637 484.559 487.434 484.92 491.512 485.108C491.703 485.117 491.887 485.126 492.061 485.133C497.443 485.359 498.525 485.021 499.32 483.989C500.546 482.399 501.355 479.008 501.56 474.84C501.653 472.957 501.611 471.229 501.544 469.969C501.511 469.343 501.473 468.843 501.444 468.511C501.429 468.345 501.417 468.221 501.409 468.145C501.405 468.107 501.403 468.081 501.401 468.068L501.401 468.063C501.401 468.065 501.401 468.066 507.381 467.375C513.362 466.685 513.362 466.687 513.362 466.688L513.362 466.691L513.365 466.714L513.37 466.764C513.375 466.803 513.38 466.856 513.387 466.922C513.4 467.053 513.418 467.235 513.438 467.462C513.478 467.916 513.526 468.555 513.568 469.334C513.649 470.885 513.703 473.037 513.585 475.432C513.369 479.819 512.531 486.573 508.856 491.34C503.909 497.757 496.278 497.389 492.223 497.193C491.988 497.182 491.765 497.171 491.555 497.162C486.231 496.938 485.442 497.365 484.814 498.279C484.308 499.014 483.872 500.334 483.854 502.498C483.837 504.617 484.227 507.045 484.844 509.477C485.453 511.877 486.232 514.08 486.867 515.696C487.182 516.498 487.455 517.14 487.645 517.57C487.74 517.786 487.813 517.947 487.86 518.049C487.883 518.099 487.9 518.135 487.909 518.155L487.917 518.172L487.915 518.168C487.915 518.167 487.914 518.166 482.485 520.766C477.055 523.366 477.055 523.365 477.054 523.364L477.049 523.353L477.04 523.334L477.013 523.276C476.991 523.229 476.961 523.166 476.924 523.086C476.851 522.927 476.75 522.704 476.626 522.423C476.379 521.863 476.042 521.07 475.66 520.098C474.902 518.168 473.943 515.467 473.174 512.439C472.414 509.444 471.786 505.92 471.815 502.398ZM487.917 518.172C487.918 518.173 487.918 518.173 487.917 518.172Z" fill="#9B51E0"/>
<circle cx="274.712" cy="520.565" r="9.1" transform="rotate(165 274.712 520.565)" fill="#9B51E0"/>
<path fill-rule="evenodd" clip-rule="evenodd" d="M1176.25 493.338C1176.25 493.34 1176.25 493.341 1170.79 498.154C1165.32 502.966 1165.32 502.967 1165.32 502.969L1165.33 502.97C1165.32 502.96 1165.3 502.94 1165.27 502.909C1165.22 502.848 1165.12 502.746 1165 502.611C1164.74 502.34 1164.35 501.936 1163.86 501.447C1162.85 500.459 1161.46 499.175 1159.87 497.945C1158.25 496.695 1156.6 495.639 1155.09 494.969C1154.1 494.528 1153.37 494.348 1152.89 494.286C1152.66 495.672 1152.71 497.805 1152.91 501.266C1152.92 501.443 1152.93 501.624 1152.94 501.808C1153.13 505.011 1153.38 509.376 1152.63 513.262C1151.75 517.803 1149.22 522.97 1142.98 525.275C1137.26 527.387 1131.71 526.044 1127.42 523.988C1123.12 521.932 1119.26 518.796 1116.17 515.84C1113.03 512.833 1110.38 509.711 1108.54 507.374C1107.6 506.197 1106.86 505.196 1106.34 504.48C1106.08 504.121 1105.88 503.832 1105.73 503.625C1105.66 503.522 1105.6 503.44 1105.56 503.379L1105.51 503.306L1105.49 503.282L1105.49 503.27C1105.48 503.268 1105.48 503.267 1111.51 499.188C1117.54 495.11 1117.54 495.109 1117.54 495.107L1117.56 495.134C1117.58 495.164 1117.62 495.216 1117.67 495.287C1117.77 495.429 1117.92 495.651 1118.13 495.938C1118.55 496.513 1119.17 497.348 1119.96 498.343C1121.54 500.352 1123.74 502.927 1126.24 505.323C1128.8 507.769 1131.38 509.742 1133.7 510.856C1136.03 511.969 1137.28 511.857 1137.93 511.617C1137.96 511.607 1137.98 511.599 1138 511.591C1138.06 511.478 1138.21 511.16 1138.34 510.491C1138.71 508.552 1138.59 505.942 1138.37 502.102C1138.36 501.977 1138.36 501.85 1138.35 501.72C1138.17 498.546 1137.9 494.066 1138.87 490.243C1139.42 488.073 1140.47 485.586 1142.57 483.512C1144.75 481.361 1147.49 480.208 1150.42 479.831C1154.4 479.318 1158.1 480.377 1160.99 481.66C1163.94 482.967 1166.61 484.757 1168.77 486.421C1170.95 488.107 1172.79 489.808 1174.08 491.076C1174.73 491.716 1175.25 492.258 1175.62 492.65C1175.8 492.847 1175.95 493.007 1176.05 493.124C1176.11 493.183 1176.15 493.231 1176.18 493.267L1176.22 493.313L1176.24 493.329L1176.25 493.338ZM1165.33 502.97L1165.33 502.974L1165.33 502.977C1165.33 502.977 1165.33 502.975 1165.33 502.97Z" fill="#2DDB73"/>
<path fill-rule="evenodd" clip-rule="evenodd" d="M988.206 465.362C988.206 465.361 988.206 465.36 983.525 465.074C978.844 464.788 978.844 464.787 978.844 464.786L978.844 464.778L978.845 464.765L978.848 464.728C978.85 464.699 978.852 464.66 978.856 464.612C978.863 464.517 978.874 464.386 978.888 464.223C978.918 463.897 978.964 463.442 979.034 462.89C979.172 461.794 979.409 460.28 979.802 458.623C980.192 456.981 980.762 455.09 981.604 453.289C982.43 451.524 983.648 449.559 985.479 448.068C988.285 445.782 991.677 445.269 994.548 445.381C997.436 445.493 1000.32 446.251 1002.74 447.094C1005.19 447.949 1007.39 448.972 1008.95 449.769C1009.74 450.171 1010.39 450.523 1010.84 450.778C1011.07 450.906 1011.25 451.011 1011.38 451.086C1011.44 451.124 1011.49 451.154 1011.53 451.177L1011.58 451.204L1011.59 451.213L1011.6 451.218C1011.6 451.219 1011.6 451.219 1009.17 455.229C1006.74 459.24 1006.74 459.24 1006.74 459.241L1006.73 459.233C1006.71 459.222 1006.68 459.205 1006.64 459.18C1006.55 459.13 1006.42 459.052 1006.24 458.952C1005.88 458.752 1005.36 458.464 1004.7 458.13C1003.37 457.455 1001.58 456.625 999.649 455.951C997.68 455.264 995.779 454.816 994.183 454.754C992.57 454.691 991.779 455.034 991.402 455.341C991.077 455.606 990.602 456.191 990.101 457.262C989.618 458.297 989.228 459.529 988.928 460.79C988.632 462.036 988.449 463.206 988.34 464.068C988.286 464.495 988.251 464.837 988.231 465.064C988.22 465.177 988.214 465.261 988.21 465.312C988.208 465.337 988.207 465.354 988.206 465.363L988.206 465.362ZM988.206 465.363C988.206 465.367 988.206 465.368 988.206 465.368L988.206 465.366L988.206 465.363Z" fill="#F2994A"/>
<circle cx="805.507" cy="472.194" r="7.3" transform="rotate(85 805.507 472.194)" fill="#9B51E0"/>
<circle cx="622.383" cy="466.088" r="10.5" transform="rotate(-22 622.383 466.088)" fill="#2DDB73"/>
<circle cx="1126.33" cy="141.331" r="10.5" transform="rotate(-22 1126.33 141.331)" fill="#2DDB73"/>
<circle cx="90.3312" cy="98.3312" r="10.5" transform="rotate(-22 90.3312 98.3312)" fill="#2DDB73"/>
<path fill-rule="evenodd" clip-rule="evenodd" d="M26.524 481.871C26.5231 481.87 26.5221 481.868 20.3868 486.749C14.2515 491.63 14.2504 491.629 14.2494 491.628L14.2417 491.618L14.2281 491.601L14.1898 491.552C14.1594 491.513 14.1194 491.462 14.0704 491.399C13.9726 491.272 13.8388 491.098 13.6747 490.879C13.3468 490.441 12.8952 489.824 12.3648 489.061C11.3112 487.544 9.91071 485.398 8.54601 482.899C7.1941 480.423 5.7874 477.438 4.81872 474.258C3.86943 471.142 3.18522 467.339 3.7916 463.439C4.72121 457.459 8.36118 453.028 12.053 449.955C15.7668 446.865 20.195 444.581 24.1418 442.923C28.1469 441.242 32.0192 440.056 34.8568 439.294C36.2865 438.91 37.4803 438.626 38.3309 438.436C38.7568 438.34 39.0983 438.268 39.3422 438.218C39.4642 438.193 39.5619 438.173 39.6337 438.159L39.7218 438.142L39.7509 438.136L39.7661 438.133C39.7681 438.133 39.7699 438.132 41.2341 445.834C42.6982 453.536 42.6998 453.536 42.7014 453.536L42.676 453.541C42.6433 453.547 42.5858 453.559 42.5053 453.575C42.344 453.609 42.0908 453.662 41.7582 453.737C41.0919 453.886 40.114 454.118 38.9246 454.437C36.5238 455.082 33.3675 456.056 30.2123 457.381C26.9988 458.73 24.135 460.3 22.0832 462.008C20.0094 463.734 19.4102 465.045 19.2855 465.847C19.1776 466.541 19.2423 467.798 19.8182 469.689C20.3746 471.515 21.2693 473.482 22.308 475.384C23.3339 477.263 24.4133 478.921 25.242 480.114C25.6527 480.705 25.9928 481.169 26.2213 481.474C26.3354 481.626 26.421 481.738 26.473 481.805C26.499 481.839 26.5166 481.861 26.525 481.872L26.524 481.871ZM26.525 481.872C26.5292 481.877 26.5311 481.88 26.5307 481.879L26.5282 481.876L26.525 481.872Z" fill="#F2994A"/>
<path fill-rule="evenodd" clip-rule="evenodd" d="M464.288 598.438C464.289 598.438 464.29 598.438 464.061 603.667C463.833 608.897 463.834 608.897 463.835 608.897L463.843 608.897L463.858 608.898L463.899 608.899C463.932 608.901 463.975 608.902 464.029 608.904C464.135 608.907 464.282 608.911 464.465 608.913C464.83 608.919 465.341 608.921 465.961 608.907C467.194 608.881 468.902 608.796 470.788 608.552C472.655 608.311 474.82 607.899 476.918 607.174C478.973 606.464 481.296 605.341 483.165 603.483C486.03 600.634 486.995 596.93 487.205 593.73C487.417 590.511 486.913 587.223 486.26 584.441C485.596 581.617 484.717 579.061 484.015 577.229C483.661 576.306 483.346 575.55 483.115 575.016C483 574.748 482.905 574.535 482.836 574.384C482.802 574.308 482.774 574.248 482.754 574.203L482.728 574.149L482.72 574.131L482.716 574.122C482.715 574.12 482.715 574.119 477.98 576.351C473.245 578.583 473.245 578.582 473.244 578.581L473.251 578.596C473.261 578.616 473.277 578.652 473.3 578.702C473.345 578.802 473.416 578.96 473.506 579.169C473.687 579.587 473.945 580.206 474.239 580.974C474.833 582.524 475.546 584.611 476.069 586.835C476.601 589.1 476.877 591.263 476.759 593.042C476.641 594.839 476.168 595.677 475.784 596.06C475.451 596.39 474.747 596.849 473.5 597.279C472.295 597.696 470.881 597.984 469.446 598.17C468.029 598.353 466.709 598.421 465.74 598.441C465.259 598.451 464.876 598.45 464.621 598.446C464.494 598.444 464.4 598.442 464.343 598.44C464.315 598.439 464.296 598.438 464.287 598.438L464.288 598.438ZM464.287 598.438C464.283 598.438 464.28 598.438 464.281 598.438L464.284 598.438L464.287 598.438Z" fill="#F2994A"/>
<path fill-rule="evenodd" clip-rule="evenodd" d="M1122.12 393.153C1122.12 393.153 1122.12 393.153 1122.25 387.204C1122.37 381.256 1122.38 381.256 1122.38 381.256L1122.39 381.256L1122.42 381.257L1122.49 381.259C1122.56 381.26 1122.65 381.263 1122.76 381.267C1122.98 381.275 1123.3 381.289 1123.7 381.31C1124.49 381.352 1125.61 381.427 1126.96 381.556C1129.65 381.812 1133.34 382.291 1137.25 383.191C1141.12 384.081 1145.45 385.438 1149.29 387.555C1153.09 389.655 1156.94 392.792 1158.96 397.475C1160.99 402.167 1160.94 407.993 1160.66 411.863C1160.5 413.946 1160.25 415.788 1160.04 417.11C1159.94 417.775 1159.84 418.316 1159.77 418.7C1159.73 418.892 1159.7 419.046 1159.68 419.156C1159.67 419.211 1159.66 419.256 1159.65 419.289L1159.64 419.331L1159.64 419.345L1159.64 419.351L1159.64 419.353C1159.64 419.354 1159.64 419.355 1153.82 418.108C1148 416.861 1148 416.862 1148 416.862L1148 416.859L1148.01 416.793C1148.03 416.729 1148.05 416.624 1148.08 416.483C1148.13 416.201 1148.21 415.775 1148.29 415.238C1148.46 414.158 1148.67 412.66 1148.79 410.994C1149.05 407.366 1148.84 404.056 1148.04 402.197C1147.45 400.838 1146.08 399.376 1143.54 397.975C1141.03 396.591 1137.87 395.545 1134.58 394.788C1131.33 394.039 1128.19 393.626 1125.83 393.402C1124.66 393.291 1123.71 393.228 1123.06 393.193C1122.74 393.176 1122.49 393.165 1122.33 393.159C1122.25 393.157 1122.19 393.155 1122.15 393.154L1122.12 393.153ZM1122.12 393.153L1122.12 393.153L1122.12 393.153C1122.12 393.153 1122.12 393.153 1122.12 393.153Z" fill="#2DDB73"/>
<path fill-rule="evenodd" clip-rule="evenodd" d="M880.282 399.993C880.283 399.992 880.283 399.992 882.066 404.781C883.848 409.57 883.849 409.57 883.85 409.569L883.854 409.568L883.857 409.567L883.824 409.579C883.79 409.593 883.73 409.616 883.648 409.649C883.484 409.715 883.234 409.819 882.921 409.958C882.288 410.239 881.436 410.646 880.545 411.154C878.598 412.264 877.443 413.31 877.068 413.925C877.082 413.958 877.101 413.997 877.123 414.042C877.484 414.753 878.2 415.599 879.562 417.111C879.614 417.169 879.668 417.228 879.723 417.289C880.831 418.519 882.479 420.345 883.509 422.42C884.762 424.946 885.286 428.199 883.508 431.589C882.554 433.409 881.024 435.025 880.064 435.968C879.528 436.495 879.039 436.937 878.682 437.25C878.502 437.407 878.352 437.534 878.243 437.626C878.189 437.671 878.144 437.709 878.11 437.736L878.069 437.771L878.054 437.782L878.045 437.789C878.045 437.79 878.044 437.79 874.825 433.822C871.606 429.853 871.605 429.854 871.605 429.854L871.608 429.851C871.62 429.842 871.641 429.824 871.672 429.798C871.733 429.747 871.829 429.665 871.951 429.558C872.198 429.343 872.537 429.036 872.9 428.679C873.625 427.966 874.134 427.356 874.368 426.993C874.364 426.983 874.359 426.973 874.354 426.963C874.018 426.287 873.326 425.459 871.966 423.949C871.909 423.885 871.85 423.82 871.79 423.753C870.682 422.526 869.048 420.714 868.008 418.663C866.749 416.179 866.151 412.946 867.837 409.523C869.6 405.942 873.247 403.551 875.484 402.276C876.747 401.556 877.92 400.996 878.775 400.617C879.206 400.426 879.564 400.276 879.823 400.172C879.953 400.12 880.058 400.078 880.136 400.048C880.175 400.033 880.207 400.021 880.231 400.011L880.263 399.999L880.275 399.995L880.282 399.993Z" fill="#69A2F0"/>
<circle cx="798.58" cy="340.931" r="8.3" transform="rotate(-58 798.58 340.931)" fill="#69A2F0"/>
<path fill-rule="evenodd" clip-rule="evenodd" d="M419.541 368.7C419.541 368.699 419.541 368.697 411.357 369.817C403.173 370.936 403.173 370.934 403.173 370.932L403.171 370.915L403.166 370.881L403.152 370.773C403.14 370.684 403.125 370.562 403.106 370.407C403.069 370.099 403.018 369.662 402.961 369.114C402.847 368.017 402.706 366.465 402.589 364.582C402.356 360.836 402.212 355.674 402.596 350.12C402.977 344.622 403.897 338.393 405.966 332.669C408.019 326.991 411.487 321.042 417.467 317.249C423.46 313.449 431.459 312.254 436.827 311.802C439.716 311.558 442.297 311.5 444.155 311.502C445.089 311.503 445.852 311.518 446.395 311.535C446.666 311.543 446.883 311.552 447.04 311.558C447.118 311.562 447.181 311.565 447.228 311.567L447.287 311.57L447.308 311.571L447.316 311.571L447.319 311.571C447.32 311.571 447.322 311.572 446.875 319.819C446.428 328.067 446.429 328.067 446.431 328.068L446.426 328.067L446.333 328.063C446.242 328.059 446.094 328.053 445.894 328.047C445.496 328.035 444.895 328.022 444.14 328.022C442.622 328.02 440.525 328.069 438.214 328.263C433.181 328.687 428.688 329.695 426.314 331.201C424.578 332.301 422.871 334.497 421.502 338.285C420.149 342.027 419.401 346.585 419.077 351.261C418.757 355.882 418.873 360.283 419.077 363.557C419.178 365.183 419.299 366.505 419.393 367.404C419.439 367.854 419.479 368.196 419.506 368.417C419.519 368.527 419.529 368.607 419.535 368.654L419.541 368.7ZM419.542 368.705L419.542 368.703L419.541 368.7C419.542 368.702 419.542 368.704 419.542 368.705Z" fill="#2DDB73"/>
<path fill-rule="evenodd" clip-rule="evenodd" d="M982.96 318.74C981.919 315.805 981.259 312.224 982.199 308.591C984.078 301.335 990.749 299.251 994.237 298.161C994.401 298.11 994.558 298.061 994.707 298.014C999.305 296.556 1000.11 295.94 1000.46 294.828C1001.01 293.115 1000.65 290.015 999.547 286.445C999.048 284.832 998.484 283.391 998.042 282.351C997.823 281.835 997.637 281.426 997.511 281.155C997.448 281.02 997.4 280.92 997.37 280.858C997.355 280.827 997.345 280.806 997.339 280.795L997.338 280.792C997.338 280.793 997.339 280.794 1002.16 278.382C1006.98 275.97 1006.98 275.971 1006.98 275.972L1006.98 275.974L1006.99 275.993L1007.01 276.033C1007.03 276.065 1007.05 276.108 1007.07 276.161C1007.12 276.267 1007.19 276.415 1007.28 276.6C1007.45 276.97 1007.69 277.492 1007.96 278.136C1008.51 279.415 1009.21 281.209 1009.85 283.261C1011.01 287.018 1012.37 292.957 1010.74 298.093C1008.54 305.006 1002.01 307.034 998.536 308.111C998.335 308.173 998.144 308.233 997.965 308.289C993.417 309.731 992.884 310.332 992.635 311.293C992.435 312.066 992.472 313.311 993.12 315.137C993.754 316.925 994.825 318.848 996.09 320.705C997.337 322.538 998.667 324.153 999.696 325.319C1000.21 325.897 1000.63 326.353 1000.92 326.657C1001.07 326.809 1001.18 326.923 1001.25 326.994C1001.29 327.029 1001.31 327.054 1001.33 327.068L1001.34 327.08L1001.34 327.077C1001.33 327.076 1001.33 327.076 997.562 330.926C993.79 334.777 993.789 334.776 993.788 334.775L993.781 334.768L993.767 334.754L993.727 334.714C993.694 334.681 993.649 334.636 993.594 334.581C993.483 334.469 993.33 334.313 993.14 334.114C992.761 333.719 992.235 333.155 991.616 332.454C990.386 331.062 988.752 329.084 987.178 326.772C985.621 324.484 984.014 321.712 982.96 318.74ZM1001.34 327.08C1001.34 327.081 1001.34 327.081 1001.34 327.08Z" fill="#9B51E0"/>
<path fill-rule="evenodd" clip-rule="evenodd" d="M737.453 302.456C737.454 302.455 737.454 302.454 729.679 299.275C721.904 296.095 721.904 296.094 721.905 296.093L721.916 296.065L721.939 296.01C721.957 295.966 721.982 295.907 722.013 295.832C722.076 295.683 722.165 295.474 722.278 295.213C722.504 294.691 722.83 293.955 723.246 293.058C724.074 291.271 725.276 288.81 726.773 286.11C729.605 281.002 734.092 273.917 739.757 269.455C744.852 265.442 751.077 263.352 756.906 262.246C762.805 261.128 768.899 260.907 774.255 261.059C779.643 261.211 784.504 261.748 788.009 262.243C789.769 262.491 791.205 262.732 792.217 262.913C792.723 263.004 793.124 263.08 793.407 263.136C793.549 263.163 793.661 263.186 793.743 263.202L793.841 263.223L793.873 263.229L793.889 263.233C793.891 263.233 793.893 263.233 792.166 271.454C790.438 279.674 790.44 279.675 790.441 279.675L790.4 279.667C790.357 279.658 790.285 279.643 790.183 279.623C789.981 279.584 789.666 279.524 789.251 279.449C788.42 279.3 787.191 279.094 785.661 278.878C782.588 278.444 778.375 277.982 773.78 277.852C769.152 277.721 764.353 277.934 760.036 278.752C755.648 279.584 752.334 280.935 750.153 282.653C747.29 284.907 744.14 289.433 741.466 294.256C740.21 296.521 739.191 298.606 738.488 300.124C738.138 300.879 737.87 301.485 737.693 301.891C737.606 302.095 737.541 302.247 737.5 302.343L737.458 302.444L737.452 302.46L737.453 302.456Z" fill="#EB5757"/>
<path fill-rule="evenodd" clip-rule="evenodd" d="M531.355 279.837C539.295 278.832 547.635 276.933 552.782 273.783C558.059 270.553 563.625 263.775 568.178 256.93C570.361 253.649 572.15 250.601 573.393 248.374C574.012 247.264 574.491 246.366 574.81 245.756C574.969 245.451 575.089 245.219 575.165 245.068C575.203 244.993 575.231 244.938 575.248 244.905L575.265 244.87C575.265 244.871 575.264 244.872 582.165 248.288C589.066 251.704 589.065 251.706 589.064 251.707L589.063 251.71L589.059 251.717L589.048 251.739L589.014 251.808C588.985 251.865 588.945 251.945 588.894 252.045C588.792 252.246 588.645 252.532 588.457 252.892C588.08 253.612 587.535 254.634 586.841 255.878C585.455 258.361 583.457 261.766 581.001 265.459C576.277 272.561 569.161 281.814 560.821 286.918C552.695 291.892 541.533 294.072 533.289 295.115C529.004 295.658 525.171 295.93 522.408 296.067C521.023 296.136 519.897 296.172 519.107 296.19C518.712 296.199 518.399 296.204 518.18 296.206C518.07 296.208 517.984 296.208 517.921 296.209L517.846 296.209L517.811 296.209C517.81 296.209 517.808 296.209 517.798 288.509C517.787 280.809 517.786 280.809 517.785 280.809L517.787 280.809L517.823 280.809C517.859 280.809 517.918 280.808 518 280.807C518.164 280.805 518.418 280.802 518.752 280.794C519.421 280.778 520.409 280.748 521.643 280.686C524.12 280.563 527.549 280.319 531.355 279.837Z" fill="#69A2F0"/>
<path fill-rule="evenodd" clip-rule="evenodd" d="M64.436 341.623C63.8714 348.366 63.9759 355.597 65.6762 360.407C67.4197 365.339 72.0466 371.133 76.9073 376.102C79.2369 378.483 81.4431 380.499 83.0661 381.918C83.8753 382.625 84.5334 383.179 84.9819 383.55C85.206 383.736 85.3773 383.875 85.4884 383.965C85.5439 384.01 85.5843 384.042 85.6088 384.062L85.6345 384.082C85.6338 384.082 85.6331 384.081 81.5951 389.187C77.557 394.294 77.5562 394.293 77.5552 394.292L77.553 394.29L77.5474 394.286L77.5313 394.273L77.4803 394.233C77.4381 394.199 77.3794 394.152 77.3052 394.092C77.1569 393.972 76.9466 393.801 76.6818 393.582C76.1524 393.144 75.4037 392.513 74.4965 391.72C72.6869 390.138 70.2223 387.887 67.6001 385.206C62.5571 380.051 56.1557 372.54 53.4006 364.746C50.7161 357.152 50.8752 347.538 51.4614 340.537C51.7662 336.897 52.2148 333.68 52.5869 331.371C52.7734 330.213 52.942 329.276 53.0659 328.62C53.1278 328.291 53.1787 328.032 53.2151 327.85C53.2334 327.759 53.248 327.688 53.2586 327.636L53.2715 327.574L53.2776 327.545C53.2778 327.543 53.2781 327.542 59.6476 328.887C66.0172 330.232 66.0174 330.231 66.0176 330.23L66.0173 330.232L66.0112 330.261C66.005 330.291 65.995 330.34 65.9814 330.408C65.9541 330.544 65.9127 330.755 65.8604 331.032C65.7556 331.588 65.6073 332.411 65.441 333.443C65.1075 335.512 64.7067 338.391 64.436 341.623Z" fill="#69A2F0"/>
<path fill-rule="evenodd" clip-rule="evenodd" d="M883.091 185.158C883.091 185.157 883.09 185.156 875.478 187.304C867.865 189.452 867.865 189.451 867.864 189.45L867.857 189.423L867.842 189.369C867.83 189.326 867.814 189.267 867.794 189.193C867.754 189.047 867.699 188.841 867.631 188.581C867.496 188.062 867.311 187.327 867.1 186.421C866.678 184.614 866.143 182.092 865.689 179.22C864.829 173.788 864.051 165.929 865.668 159.334C867.122 153.402 870.53 148.242 874.214 144.043C877.943 139.793 882.337 136.096 886.4 133.103C890.486 130.093 894.405 127.673 897.292 126.008C898.742 125.172 899.947 124.518 900.803 124.066C901.231 123.84 901.573 123.664 901.815 123.541C901.936 123.479 902.033 123.431 902.103 123.396L902.188 123.354L902.215 123.34L902.229 123.334C902.231 123.333 902.232 123.332 905.716 130.433C909.2 137.535 909.202 137.534 909.203 137.533L909.168 137.551C909.131 137.569 909.068 137.601 908.982 137.645C908.809 137.733 908.54 137.871 908.189 138.056C907.486 138.427 906.454 138.987 905.194 139.713C902.662 141.173 899.268 143.273 895.782 145.84C892.273 148.426 888.835 151.366 886.106 154.476C883.332 157.637 881.656 160.561 881.033 163.1C880.216 166.432 880.502 171.617 881.314 176.747C881.696 179.155 882.149 181.294 882.506 182.827C882.684 183.591 882.837 184.196 882.942 184.599C882.994 184.801 883.035 184.952 883.06 185.047L883.087 185.145L883.092 185.162L883.091 185.158Z" fill="#EB5757"/>
<path fill-rule="evenodd" clip-rule="evenodd" d="M198.514 561.385C198.513 561.385 198.512 561.385 196.59 567.682C194.667 573.98 194.666 573.979 194.665 573.979L194.642 573.972L194.598 573.959C194.562 573.947 194.514 573.932 194.453 573.913C194.332 573.875 194.163 573.821 193.951 573.751C193.527 573.612 192.929 573.411 192.199 573.151C190.745 572.632 188.738 571.872 186.522 570.897C182.332 569.053 176.479 566.06 172.589 561.958C169.09 558.27 167.011 553.561 165.73 549.091C164.433 544.567 163.823 539.826 163.556 535.634C163.288 531.417 163.358 527.584 163.492 524.813C163.559 523.421 163.644 522.283 163.713 521.48C163.747 521.079 163.778 520.76 163.801 520.535C163.812 520.423 163.822 520.333 163.829 520.268L163.837 520.19L163.84 520.165L163.842 520.152C163.842 520.15 163.842 520.149 170.383 520.906C176.924 521.664 176.924 521.663 176.924 521.661L176.92 521.694C176.917 521.728 176.911 521.786 176.902 521.867C176.886 522.027 176.862 522.277 176.834 522.607C176.777 523.267 176.704 524.241 176.646 525.45C176.528 527.88 176.47 531.202 176.699 534.798C176.929 538.42 177.44 542.15 178.389 545.462C179.354 548.827 180.646 551.317 182.144 552.896C184.109 554.968 187.868 557.102 191.825 558.843C193.683 559.66 195.384 560.305 196.619 560.745C197.234 560.965 197.726 561.13 198.056 561.238C198.221 561.292 198.345 561.332 198.423 561.357L198.504 561.382L198.517 561.386L198.514 561.385Z" fill="#EB5757"/>
<circle cx="815.133" cy="222.396" r="9.2" transform="rotate(83 815.133 222.396)" fill="#2DDB73"/>
<circle cx="413.383" cy="244.155" r="8.6" transform="rotate(54 413.383 244.155)" fill="#9B51E0"/>
<path fill-rule="evenodd" clip-rule="evenodd" d="M1050.9 565.06C1046.74 564.492 1042.03 563.067 1038.25 559.688C1030.7 552.94 1032.33 543.642 1033.19 538.779C1033.23 538.551 1033.26 538.332 1033.3 538.124C1034.4 531.703 1034.16 530.353 1033.04 529.241C1031.32 527.527 1027.38 526.037 1022.41 525.151C1020.17 524.75 1018.09 524.535 1016.57 524.422C1015.81 524.365 1015.2 524.335 1014.8 524.318C1014.6 524.31 1014.45 524.306 1014.36 524.304C1014.31 524.302 1014.28 524.302 1014.26 524.301L1014.26 524.301C1014.26 524.301 1014.26 524.301 1014.35 517.022C1014.44 509.742 1014.44 509.742 1014.44 509.742L1014.45 509.743L1014.48 509.743L1014.54 509.744C1014.58 509.745 1014.65 509.746 1014.73 509.748C1014.89 509.752 1015.11 509.759 1015.38 509.77C1015.94 509.792 1016.71 509.832 1017.65 509.902C1019.52 510.042 1022.11 510.308 1024.97 510.817C1030.2 511.749 1038.17 513.791 1043.32 518.931C1050.26 525.85 1048.65 534.948 1047.79 539.782C1047.74 540.062 1047.69 540.327 1047.65 540.577C1046.57 546.929 1046.96 547.941 1047.96 548.835C1048.76 549.555 1050.28 550.28 1052.87 550.634C1055.41 550.98 1058.38 550.885 1061.39 550.518C1064.37 550.156 1067.13 549.56 1069.16 549.046C1070.17 548.792 1070.99 548.562 1071.53 548.401C1071.8 548.32 1072.01 548.257 1072.14 548.216C1072.2 548.196 1072.25 548.181 1072.27 548.173L1072.3 548.166L1072.29 548.168C1072.29 548.168 1072.29 548.169 1074.57 555.081C1076.86 561.993 1076.86 561.993 1076.86 561.994L1076.84 561.998L1076.82 562.006L1076.74 562.03C1076.68 562.049 1076.6 562.075 1076.5 562.107C1076.3 562.17 1076.02 562.258 1075.66 562.363C1074.95 562.573 1073.95 562.855 1072.72 563.164C1070.29 563.778 1066.91 564.514 1063.16 564.971C1059.45 565.423 1055.12 565.636 1050.9 565.06ZM1072.3 548.166C1072.3 548.166 1072.3 548.166 1072.3 548.166Z" fill="#9B51E0"/>
<path fill-rule="evenodd" clip-rule="evenodd" d="M1171.42 100.76C1171.74 94.2198 1171.39 87.2304 1169.58 82.6358C1167.73 77.9246 1163.06 72.477 1158.19 67.8356C1155.86 65.611 1153.66 63.736 1152.04 62.4185C1151.23 61.7617 1150.58 61.2483 1150.13 60.9045C1149.91 60.7328 1149.74 60.6037 1149.63 60.5207C1149.57 60.4791 1149.53 60.4491 1149.51 60.4311L1149.48 60.4121C1149.48 60.4126 1149.48 60.4131 1153.22 55.3382C1156.95 50.2632 1156.95 50.2639 1156.95 50.2645L1156.95 50.2662L1156.96 50.2703L1156.98 50.2821L1157.03 50.3197C1157.07 50.3509 1157.13 50.3945 1157.2 50.4499C1157.35 50.5608 1157.56 50.7194 1157.82 50.9224C1158.35 51.3281 1159.09 51.9125 1160 52.6489C1161.8 54.1179 1164.26 56.2116 1166.89 58.7156C1171.94 63.5311 1178.38 70.5794 1181.31 78.0245C1184.16 85.2786 1184.33 94.5823 1184 101.373C1183.83 104.903 1183.51 108.03 1183.22 110.276C1183.08 111.401 1182.95 112.313 1182.85 112.953C1182.81 113.273 1182.77 113.525 1182.74 113.702C1182.72 113.791 1182.71 113.86 1182.7 113.911L1182.69 113.971L1182.69 114C1182.69 114.001 1182.69 114.002 1176.48 112.916C1170.27 111.831 1170.27 111.832 1170.27 111.832L1170.27 111.831L1170.28 111.802C1170.28 111.773 1170.29 111.725 1170.3 111.659C1170.32 111.527 1170.36 111.322 1170.4 111.051C1170.48 110.51 1170.6 109.71 1170.72 108.706C1170.98 106.694 1171.27 103.895 1171.42 100.76Z" fill="#69A2F0"/>
<path fill-rule="evenodd" clip-rule="evenodd" d="M968.978 248.832C968.977 248.832 968.976 248.831 967.225 253.855C965.475 258.879 965.474 258.878 965.472 258.878L965.462 258.874L965.441 258.867L965.375 258.843C965.32 258.824 965.246 258.797 965.152 258.763C964.964 258.694 964.698 258.595 964.367 258.468C963.704 258.212 962.772 257.84 961.657 257.356C959.439 256.395 956.435 254.968 953.361 253.123C950.316 251.297 947.011 248.948 944.331 246.087C941.673 243.249 939.273 239.519 938.845 234.978C938.416 230.428 940.07 225.488 941.38 222.275C942.085 220.546 942.806 219.048 943.35 217.982C943.624 217.446 943.856 217.013 944.024 216.706C944.108 216.553 944.177 216.431 944.226 216.343C944.251 216.299 944.271 216.264 944.286 216.237L944.305 216.204L944.312 216.193L944.314 216.189L944.315 216.187C944.316 216.186 944.316 216.185 948.919 218.853C953.521 221.521 953.522 221.521 953.522 221.52L953.521 221.523L953.491 221.575C953.462 221.626 953.416 221.709 953.354 221.822C953.23 222.047 953.047 222.388 952.826 222.821C952.381 223.692 951.796 224.91 951.232 226.293C950.004 229.305 949.268 232.178 949.438 233.98C949.562 235.298 950.323 236.92 952.097 238.813C953.849 240.684 956.245 242.446 958.834 243.999C961.392 245.534 963.952 246.754 965.89 247.594C966.853 248.012 967.647 248.329 968.191 248.538C968.462 248.643 968.67 248.72 968.805 248.77C968.872 248.794 968.921 248.812 968.95 248.822L968.978 248.832ZM968.981 248.833L968.979 248.832L968.978 248.832C968.979 248.832 968.98 248.833 968.981 248.833Z" fill="#2DDB73"/>
<circle cx="669.278" cy="103.791" r="7.9" transform="rotate(-64 669.278 103.791)" fill="#2DDB73"/>
<path fill-rule="evenodd" clip-rule="evenodd" d="M372.558 117.91C372.558 117.911 372.557 117.912 366.86 116.776C361.162 115.641 361.161 115.642 361.161 115.643L361.16 115.647L361.16 115.649C361.16 115.649 361.16 115.647 361.161 115.645L361.169 115.601C361.178 115.555 361.192 115.477 361.21 115.372C361.247 115.161 361.301 114.839 361.36 114.432C361.479 113.611 361.617 112.473 361.693 111.211C361.863 108.403 361.652 106.044 361.129 104.847C360.909 104.343 360.538 103.981 356.913 102.592C356.841 102.565 356.767 102.536 356.69 102.507C354.001 101.483 348.18 99.2644 346.982 92.4686C346.4 89.1694 347.279 86.124 348.352 83.8019C349.441 81.4421 350.959 79.3314 352.357 77.651C353.776 75.9452 355.214 74.5136 356.285 73.5168C356.825 73.0138 357.283 72.6099 357.615 72.3248C357.782 72.182 357.917 72.0683 358.016 71.9862C358.066 71.9451 358.107 71.9118 358.137 71.8867L358.176 71.8551L358.19 71.8439L358.198 71.8376C358.199 71.8367 358.2 71.8359 361.841 76.3637C365.481 80.8915 365.482 80.8907 365.483 80.89L365.485 80.8888C365.477 80.8955 365.459 80.9097 365.433 80.9312C365.382 80.974 365.296 81.0455 365.183 81.1432C364.954 81.3391 364.615 81.6374 364.205 82.0194C363.375 82.7927 362.305 83.8627 361.29 85.0825C360.254 86.3279 359.412 87.567 358.901 88.674C358.372 89.8186 358.408 90.3568 358.425 90.4508C358.432 90.4921 358.419 90.4921 358.419 90.4935C358.419 90.4949 358.432 90.4975 358.492 90.5438C358.865 90.8279 359.524 91.1491 361.071 91.7415C361.243 91.8074 361.436 91.8786 361.647 91.9564C364.211 92.9012 369.43 94.8247 371.777 100.193C373.484 104.1 373.476 108.869 373.292 111.913C373.191 113.577 373.012 115.046 372.859 116.101C372.782 116.631 372.711 117.064 372.657 117.374C372.63 117.529 372.607 117.653 372.59 117.744C372.581 117.789 372.574 117.826 372.569 117.854L372.562 117.889L372.559 117.902L372.558 117.91ZM365.49 80.8847L365.488 80.8865L365.485 80.8888C365.488 80.8867 365.489 80.8853 365.49 80.8847ZM361.16 115.649C361.16 115.65 361.16 115.65 361.16 115.649Z" fill="#EB5757"/>
<path fill-rule="evenodd" clip-rule="evenodd" d="M184.629 143.886C188.437 143.383 192.929 143.504 197.072 145.571C205.346 149.7 206.15 158.285 206.571 162.775C206.59 162.985 206.609 163.187 206.628 163.379C207.208 169.301 207.745 170.433 208.995 171.144C210.923 172.241 214.757 172.604 219.348 172.187C221.422 171.999 223.305 171.688 224.674 171.422C225.354 171.289 225.894 171.17 226.253 171.087C226.433 171.046 226.566 171.014 226.648 170.993C226.689 170.983 226.717 170.976 226.732 170.973L226.736 170.972C226.735 170.972 226.734 170.972 228.408 177.408C230.083 183.844 230.081 183.844 230.08 183.844L230.077 183.845L230.051 183.852L229.998 183.865C229.956 183.876 229.899 183.89 229.828 183.908C229.686 183.943 229.49 183.99 229.245 184.047C228.754 184.16 228.063 184.311 227.216 184.476C225.533 184.804 223.187 185.194 220.549 185.433C215.717 185.871 208.2 185.993 202.42 182.705C194.641 178.281 193.87 169.876 193.46 165.41C193.436 165.151 193.414 164.906 193.391 164.675C192.818 158.817 192.23 158.019 191.134 157.472C190.252 157.032 188.741 156.758 186.371 157.071C184.05 157.378 181.454 158.178 178.889 159.227C176.357 160.262 174.067 161.453 172.396 162.396C171.568 162.864 170.908 163.261 170.466 163.535C170.245 163.672 170.08 163.777 169.976 163.844C169.924 163.877 169.887 163.901 169.867 163.914L169.849 163.926L169.854 163.923C169.855 163.922 169.856 163.921 166.177 158.382C162.498 152.842 162.499 152.841 162.5 152.841L162.511 152.834L162.53 152.821L162.59 152.782C162.638 152.75 162.703 152.708 162.784 152.656C162.947 152.551 163.176 152.406 163.463 152.228C164.038 151.872 164.853 151.381 165.858 150.814C167.853 149.687 170.66 148.223 173.854 146.917C177.014 145.624 180.772 144.395 184.629 143.886ZM169.849 163.926C169.848 163.926 169.848 163.926 169.849 163.926Z" fill="#9B51E0"/>
<path fill-rule="evenodd" clip-rule="evenodd" d="M946.526 41.1138C946.526 41.1134 946.525 41.1131 944.331 45.9596C942.137 50.8062 942.136 50.8058 942.135 50.8054L942.13 50.8028L942.121 50.7987L942.097 50.7878C942.078 50.7794 942.055 50.7687 942.028 50.7558C941.972 50.73 941.899 50.6953 941.809 50.652C941.629 50.5656 941.383 50.4444 941.087 50.2916C940.5 49.9886 939.694 49.5488 938.813 48.9983C937.266 48.031 934.666 46.2286 933.121 43.7123C931.309 40.7611 930.836 37.5727 931.639 34.4899C932.385 31.6234 934.114 29.294 935.873 27.5013C939.343 23.9662 944.315 21.1585 947.981 19.2267C951.028 17.6217 954.911 16.8038 957.599 16.3687C959.026 16.1377 960.294 15.9884 961.207 15.8964C961.665 15.8502 962.039 15.8181 962.304 15.797C962.437 15.7865 962.543 15.7787 962.619 15.7734L962.71 15.7672L962.739 15.7653L962.754 15.7643C962.755 15.7643 962.756 15.7643 963.084 21.0741C963.412 26.384 963.412 26.384 963.413 26.3839L963.363 26.3873C963.318 26.3905 963.244 26.3959 963.145 26.4037C962.947 26.4194 962.649 26.445 962.273 26.4828C961.518 26.5589 960.469 26.6827 959.299 26.872C956.794 27.2776 954.366 27.8895 952.941 28.6402C949.255 30.582 945.649 32.7309 943.467 34.9545C942.4 36.0411 942.034 36.7915 941.935 37.1702C941.935 37.1731 941.934 37.176 941.933 37.1789C941.891 37.3406 941.832 37.5653 942.188 38.1446C942.187 38.1427 942.198 38.1613 942.228 38.1997C942.257 38.238 942.3 38.2902 942.36 38.3557C942.482 38.4896 942.651 38.6529 942.87 38.8404C943.318 39.222 943.869 39.6111 944.454 39.9764C945.029 40.3359 945.571 40.6322 945.969 40.8378C946.166 40.9394 946.321 41.0156 946.42 41.0631C946.469 41.0868 946.504 41.1031 946.522 41.1116L946.536 41.118L946.526 41.1138Z" fill="#9B51E0"/>
<path fill-rule="evenodd" clip-rule="evenodd" d="M823.007 44.7255C823.008 44.7269 823.008 44.7283 816.881 47.1274C810.754 49.5265 810.755 49.5277 810.755 49.529L810.756 49.5308C810.751 49.5197 810.742 49.4965 810.728 49.4618C810.699 49.3923 810.652 49.2775 810.586 49.1234C810.454 48.8145 810.249 48.3518 809.979 47.7832C809.433 46.6337 808.646 45.1126 807.674 43.5759C806.685 42.0131 805.612 40.6074 804.536 39.5713C803.828 38.8896 803.269 38.5124 802.875 38.3098C802.249 39.4152 801.636 41.2431 800.735 44.2445C800.689 44.3977 800.642 44.5546 800.594 44.7148C799.764 47.4928 798.631 51.2794 796.79 54.347C794.639 57.9316 790.89 61.5372 784.879 61.5663C779.371 61.5929 775.072 58.737 772.06 55.6628C769.049 52.5895 766.74 48.7328 765.031 45.2673C763.293 41.7427 762.006 38.2712 761.159 35.7153C760.732 34.4272 760.409 33.3473 760.19 32.5781C760.08 32.1929 759.996 31.8841 759.937 31.6644C759.908 31.5545 759.885 31.4668 759.868 31.4027L759.848 31.3246L759.842 31.2993L759.838 31.2863C759.838 31.2847 759.838 31.2832 766.22 29.6834C772.603 28.0837 772.602 28.0823 772.602 28.0811L772.609 28.1096C772.618 28.1416 772.632 28.1962 772.652 28.2721C772.693 28.4239 772.757 28.6599 772.845 28.9682C773.021 29.5856 773.29 30.4867 773.651 31.5754C774.379 33.7731 775.449 36.6385 776.834 39.447C778.248 42.3147 779.829 44.7874 781.46 46.4528C783.091 48.1174 784.189 48.4094 784.815 48.4064C784.841 48.4063 784.862 48.4055 784.879 48.4045C784.967 48.3277 785.189 48.1028 785.507 47.5746C786.425 46.044 787.131 43.7903 788.131 40.4609C788.163 40.3525 788.196 40.2422 788.23 40.1299C789.054 37.3767 790.218 33.4915 792.219 30.5423C793.355 28.8688 795.017 27.0811 797.443 25.9689C799.957 24.8157 802.645 24.6847 805.247 25.269C808.788 26.0642 811.604 28.108 813.664 30.0919C815.763 32.1129 817.478 34.4585 818.794 36.5389C820.127 38.6453 821.164 40.6593 821.865 42.134C822.218 42.8775 822.493 43.4992 822.685 43.9466C822.781 44.1707 822.856 44.3521 822.91 44.4843C822.937 44.5504 822.959 44.6043 822.975 44.6452L822.996 44.6968L823.003 44.7151L823.007 44.7255ZM810.756 49.5308L810.757 49.5347L810.759 49.5381C810.759 49.5388 810.758 49.5363 810.756 49.5308Z" fill="#2DDB73"/>
<path fill-rule="evenodd" clip-rule="evenodd" d="M557.957 69.1606C557.957 69.1598 557.958 69.159 561.989 72.7366C566.021 76.3142 566.022 76.3135 566.022 76.3127L566.025 76.3091L566.027 76.3071L566.003 76.3346C565.978 76.364 565.934 76.4154 565.874 76.4866C565.754 76.6296 565.572 76.8506 565.35 77.1349C564.9 77.7095 564.307 78.5113 563.729 79.4255C562.466 81.4231 561.907 82.9693 561.863 83.7278C561.893 83.7513 561.929 83.7785 561.973 83.8091C562.66 84.2927 563.747 84.7258 565.763 85.4598C565.84 85.488 565.92 85.5169 566.001 85.5464C567.643 86.1422 570.082 87.0275 572.068 88.45C574.486 90.1817 576.585 92.9517 576.608 96.9895C576.621 99.1571 575.996 101.42 575.569 102.774C575.331 103.529 575.094 104.184 574.916 104.651C574.826 104.887 574.75 105.08 574.694 105.219C574.666 105.289 574.643 105.345 574.625 105.387L574.603 105.44L574.596 105.458L574.591 105.469C574.591 105.47 574.59 105.471 569.627 103.369C564.664 101.267 564.663 101.268 564.663 101.268L564.665 101.264C564.671 101.249 564.682 101.222 564.698 101.183C564.729 101.105 564.779 100.981 564.839 100.821C564.962 100.498 565.126 100.045 565.288 99.5323C565.61 98.5096 565.781 97.6889 565.82 97.235C565.811 97.2283 565.801 97.2213 565.791 97.2141C565.144 96.7509 564.089 96.3227 562.075 95.5894C561.99 95.5586 561.903 95.527 561.814 95.4946C560.175 94.9001 557.755 94.0223 555.771 92.6266C553.368 90.9369 551.211 88.2222 551.086 84.1995C550.955 79.9911 553.167 75.9581 554.619 73.6628C555.439 72.3666 556.254 71.2647 556.863 70.4881C557.169 70.0968 557.429 69.7804 557.618 69.5548C557.713 69.4418 557.791 69.3511 557.848 69.2846C557.877 69.2513 557.901 69.224 557.919 69.2031L557.943 69.1763L557.951 69.1664L557.957 69.1606Z" fill="#69A2F0"/>
<circle cx="477.041" cy="2.01081" r="7.7" transform="rotate(-54 477.041 2.01081)" fill="#EB5757"/>
<circle cx="220.671" cy="68.9832" r="8.4" transform="rotate(-100 220.671 68.9832)" fill="#9B51E0"/>
<circle cx="1084.27" cy="372.269" r="8.4" transform="rotate(-100 1084.27 372.269)" fill="#9B51E0"/>
<path fill-rule="evenodd" clip-rule="evenodd" d="M146.205 21.8571C146.205 21.8585 146.205 21.8597 140.779 20.4736C135.353 19.0874 135.353 19.0885 135.352 19.0896L135.352 19.0914L135.355 19.079C135.36 19.0609 135.368 19.0278 135.379 18.9804C135.402 18.8858 135.437 18.7346 135.482 18.5335C135.571 18.1305 135.697 17.5309 135.831 16.7854C136.102 15.282 136.396 13.2474 136.511 11.0711C136.629 8.8648 136.551 6.70682 136.18 4.88627C135.8 3.02438 135.21 1.9841 134.687 1.46279C134.097 0.87578 133.501 0.645802 130.834 0.392792C130.708 0.380866 130.576 0.368908 130.439 0.356425C128.027 0.137872 123.843 -0.241362 120.2 -3.42511C117.452 -5.82693 115.405 -9.40918 114.179 -11.8364C113.518 -13.1462 112.992 -14.3327 112.631 -15.1934C112.449 -15.6259 112.307 -15.9817 112.207 -16.2363C112.157 -16.3638 112.118 -16.4663 112.089 -16.5409C112.082 -16.5614 112.075 -16.5798 112.069 -16.5961C112.064 -16.6093 112.059 -16.6211 112.055 -16.6315L112.045 -16.6605L112.039 -16.6766C112.038 -16.6774 112.038 -16.6782 117.293 -18.6133C122.548 -20.5483 122.548 -20.5491 122.548 -20.5498L122.562 -20.5115C122.577 -20.4719 122.602 -20.4062 122.637 -20.3172C122.707 -20.1389 122.815 -19.8688 122.957 -19.5297C123.244 -18.8471 123.66 -17.9075 124.177 -16.8856C125.306 -14.6494 126.555 -12.7458 127.571 -11.8579C128.313 -11.209 129.072 -11.0246 131.892 -10.7572C131.956 -10.751 132.023 -10.7448 132.09 -10.7385C134.605 -10.5023 138.953 -10.0942 142.589 -6.47458C145.259 -3.81651 146.533 -0.394681 147.154 2.64822C147.783 5.73245 147.841 8.92191 147.696 11.6656C147.548 14.4393 147.18 16.9573 146.854 18.769C146.69 19.6811 146.534 20.4296 146.416 20.9604C146.357 21.2262 146.307 21.4384 146.271 21.5903C146.253 21.6662 146.238 21.7272 146.226 21.7724L146.213 21.8282L146.208 21.847L146.205 21.8571Z" fill="#F2994A"/>
</g>
<defs>
<clipPath id="clip0">
<rect width="1200" height="600" fill="white" transform="translate(1200 600) rotate(-180)"/>
</clipPath>
</defs>
</svg>
